<svg
    width="512"
    height="512"
    fill="none"
    viewBox="0 0 512 512"
    xmlns="http://www.w3.org/2000/svg"
>
    <style>
        path {
            fill: #010101;
        }

        @media (prefers-color-scheme: dark) {
            path {
                fill: #FFFDF4;
            }
        }
    </style>
    <path d="M47.5 117.75H125.45C145.62 117.75 160.75 123.202 170.839 134.106C180.921 145.012 186.073 161.155 186.295 182.536L186.951 311.465C187.169 338.622 182.346 359.042 172.481 372.724C162.616 386.406 146.281 393.248 123.476 393.25H47.5V117.75ZM114.266 344.498C124.572 344.498 129.725 339.582 129.724 329.749V187.665C129.901 182.969 129.403 178.273 128.244 173.719C127.88 172.329 127.202 171.042 126.261 169.956C125.319 168.871 124.141 168.017 122.817 167.46C118.888 166.204 114.767 165.662 110.647 165.859H104.399V344.498H114.266Z" />
    <path d="M209.41 393.25L174.587 117.75H228.464L249.16 305.155L267.557 117.75H321.432L286.611 393.25H209.41Z" />
    <path d="M493.952 113C493.952 113 473.502 120.938 439.969 116.695C414.253 113.309 388.185 113.62 362.558 117.618V117.639C348.599 119.104 335.343 124.5 324.33 133.201C320.641 136.342 317.429 140.005 314.797 144.073C307.317 156.774 303.69 171.375 304.356 186.1V193.471C304.313 199.068 304.801 204.656 305.813 210.161C306.682 214.939 308.214 219.571 310.366 223.924C314.501 231.951 321.605 238.049 330.167 240.92C321.202 244.529 313.938 251.401 309.837 260.151C305.501 271.158 303.513 282.95 304 294.77V313.05C304 341.046 310.305 362.204 322.915 376.525C335.525 390.845 355.733 398.003 383.54 398C411.346 398 431.497 390.842 443.991 376.525C456.485 362.208 462.733 341.05 462.733 313.05C463.047 310.711 463.166 308.351 463.089 305.993C463.609 291.56 461.94 277.131 458.137 263.199C456.426 258.207 453.638 253.652 449.972 249.857C446.306 246.061 441.85 243.117 436.921 241.234C441.376 239.637 445.46 237.152 448.925 233.929C452.39 230.705 455.164 226.811 457.078 222.483C461.236 211.599 463.158 199.988 462.731 188.344C462.772 181.562 462.202 174.789 461.029 168.109C496.688 154.707 493.952 113 493.952 113ZM399.449 191.226C399.449 208.758 394.146 217.52 383.54 217.514C372.936 217.514 367.636 208.751 367.64 191.226C367.449 185.24 368.722 179.299 371.347 173.916C372.581 171.772 374.357 169.99 376.499 168.751C378.64 167.512 381.071 166.86 383.545 166.86C386.019 166.86 388.449 167.512 390.59 168.751C392.732 169.99 394.509 171.772 395.742 173.916C398.367 179.299 399.64 185.24 399.449 191.226V191.226ZM366.927 297.015C366.706 289.819 368.032 282.659 370.817 276.02C371.787 273.453 373.534 271.254 375.816 269.731C378.097 268.207 380.798 267.435 383.54 267.522C386.563 267.235 389.589 268.051 392.058 269.82C394.527 271.589 396.273 274.191 396.974 277.147C399.083 285.415 400.036 293.935 399.806 302.464L400.162 316.255C400.162 334.424 394.621 343.506 383.54 343.503C372.468 343.503 366.93 334.42 366.927 316.255C366.738 310.755 366.927 297.015 366.927 297.015Z" />
</svg>
